<?xml version="1.0" encoding="utf-8"?>
<!-- Generator: Adobe Illustrator 25.2.1, SVG Export Plug-In . SVG Version: 6.00 Build 0)  -->
<svg version="1.1" id="Layer_1" xmlns="http://www.w3.org/2000/svg" xmlns:xlink="http://www.w3.org/1999/xlink" x="0px" y="0px"
	 viewBox="0 0 1000 1000" style="enable-background:new 0 0 1000 1000;" xml:space="preserve">
<style type="text/css">
	.st0{fill:#F7B37C;}
	.st1{fill:#231F20;}
	.st2{fill:#CC7752;}
	.st3{fill:#669999;stroke:#000000;stroke-width:7;stroke-linecap:round;stroke-miterlimit:10;}
	.st4{fill:#C6C09B;stroke:#000000;stroke-width:7;stroke-linecap:round;stroke-miterlimit:10;}
	.st5{fill:#C96363;stroke:#000000;stroke-width:7;stroke-linecap:round;stroke-miterlimit:10;}
	.st6{fill:#CEC591;}
	.st7{fill:none;stroke:#000000;stroke-width:7;stroke-linecap:round;stroke-miterlimit:10;}
	.st8{fill:#CEC591;stroke:#000000;stroke-width:7;stroke-miterlimit:10;}
	.st9{fill:#9CAF61;stroke:#000000;stroke-width:7;stroke-linecap:round;stroke-miterlimit:10;}
	.st10{fill:#AD4D4D;stroke:#000000;stroke-width:7;stroke-linecap:round;stroke-miterlimit:10;}
	.st11{stroke:#000000;stroke-width:7;stroke-linecap:round;stroke-miterlimit:10;}
</style>
<g>
	<path class="st0" d="M500,990c-66.15,0-130.32-12.95-190.73-38.5c-58.35-24.68-110.75-60.01-155.76-105.01
		S73.18,749.08,48.5,690.73C22.95,630.32,10,566.15,10,500c0-66.15,12.95-130.32,38.5-190.73
		c24.68-58.35,60.01-110.75,105.02-155.76S250.93,73.18,309.27,48.5C369.68,22.95,433.85,10,500,10
		c66.15,0,130.32,12.95,190.73,38.5c58.35,24.68,110.75,60.01,155.75,105.02s80.34,97.41,105.01,155.76
		C977.05,369.68,990,433.85,990,500c0,66.15-12.95,130.32-38.5,190.73c-24.68,58.35-60.01,110.75-105.01,155.75
		s-97.41,80.34-155.75,105.01C630.32,977.05,566.15,990,500,990z"/>
	<path class="st1" d="M500,20c64.81,0,127.67,12.69,186.83,37.71c57.16,24.17,108.49,58.79,152.58,102.88
		c44.09,44.09,78.7,95.42,102.88,152.58C967.31,372.33,980,435.19,980,500s-12.69,127.67-37.71,186.83
		c-24.17,57.16-58.79,108.49-102.88,152.58c-44.09,44.09-95.42,78.7-152.58,102.88C627.67,967.31,564.81,980,500,980
		s-127.67-12.69-186.83-37.71c-57.16-24.17-108.49-58.79-152.58-102.88c-44.09-44.09-78.7-95.42-102.88-152.58
		C32.69,627.67,20,564.81,20,500s12.69-127.67,37.71-186.83c24.17-57.16,58.79-108.49,102.88-152.58
		c44.09-44.09,95.42-78.7,152.58-102.88C372.33,32.69,435.19,20,500,20 M500,0C223.86,0,0,223.86,0,500s223.86,500,500,500
		s500-223.86,500-500S776.14,0,500,0L500,0z"/>
</g>
<g>
	<path class="st2" d="M500,848.06c-48.56,0-95.68-9.51-140.04-28.28c-42.84-18.12-81.32-44.06-114.35-77.1s-58.98-71.51-77.1-114.36
		c-18.76-44.36-28.28-91.48-28.28-140.05c0-48.56,9.51-95.68,28.28-140.04c18.12-42.84,44.06-81.32,77.1-114.35
		s71.51-58.98,114.35-77.1c44.36-18.76,91.48-28.28,140.04-28.28s95.68,9.51,140.04,28.28c42.84,18.12,81.32,44.06,114.35,77.1
		c33.04,33.04,58.98,71.51,77.1,114.35c18.76,44.36,28.28,91.48,28.28,140.04c0,47.82-9.23,94.25-27.43,138.01
		c-34.3,82.52-97.71,149.05-178.54,187.33C605.55,836.47,553.8,848.06,500,848.06z"/>
	<path class="st1" d="M500,138.51c193.17,0,349.77,156.6,349.77,349.77c0,47.53-9.48,92.86-26.66,134.17
		c-33.29,80.09-95.5,145.15-173.59,182.13c-45.33,21.47-96.03,33.48-149.52,33.48c-193.17,0-349.77-156.6-349.77-349.78
		C150.23,295.11,306.83,138.51,500,138.51 M500,118.51c-49.91,0-98.34,9.78-143.94,29.07c-44.03,18.63-83.58,45.28-117.53,79.24
		c-33.95,33.95-60.61,73.5-79.24,117.53c-19.29,45.6-29.07,94.03-29.07,143.94c0,49.91,9.78,98.34,29.07,143.94
		c18.63,44.04,45.28,83.58,79.24,117.53c33.95,33.95,73.5,60.61,117.53,79.24c45.6,19.29,94.03,29.07,143.94,29.07
		c55.29,0,108.48-11.91,158.08-35.41c41.13-19.48,77.97-46.11,109.51-79.17c31.6-33.13,56.5-71.27,73.99-113.36
		c18.71-44.98,28.19-92.71,28.19-141.85c0-49.91-9.78-98.34-29.07-143.94c-18.63-44.03-45.28-83.58-79.24-117.53
		c-33.95-33.95-73.5-60.61-117.53-79.24C598.34,128.29,549.91,118.51,500,118.51L500,118.51z"/>
</g>
<path class="st3" d="M635.79,445.12c-3.31,12.22-9.66,22.63-17.91,30.55c-2.13-2.26-4.45-4.46-6.95-6.58
	c-0.74-0.63-1.49-1.25-2.26-1.86c-0.02-0.02-0.04-0.04-0.06-0.05c-6.19-4.91-13.35-9.36-21.27-13.09c-5.08-2.4-10.47-4.5-16.12-6.24
	c-19.31-5.96-38.16-6.68-53.39-3.05c-3.01-11.4-3.17-23.81,0.14-36.03c3.16-11.66,9.09-21.66,16.79-29.44l7.69,5.26l-0.74-11.31
	c12.1-9.07,27.16-13.42,42.47-11.46c3.26,0.42,6.53,1.12,9.79,2.13C626.5,373.97,645.23,410.32,635.79,445.12z"/>
<path class="st4" d="M626.95,437.2c-2.56,12.39-8.26,23.28-16.02,31.89c-0.02,0.01-0.03,0.03-0.05,0.05
	c-0.72-0.64-1.46-1.28-2.22-1.91c-0.02-0.02-0.04-0.04-0.06-0.05c-6.02-4.97-13.2-9.42-21.27-13.09
	c-7.62-3.47-16.05-6.24-25.04-8.09c-19.76-4.08-38.72-3.02-53.79,2.01c-3.74-11-4.67-23.28-2.11-35.69
	c3.15-15.26,11.07-28.24,21.74-37.5l6.62,4.52l7.69,5.26l-0.74-11.31l-0.47-7.27c11.7-5.9,25.14-8.04,38.65-5.25
	c1.46,0.3,2.89,0.65,4.29,1.05C614.96,370.61,633.93,403.39,626.95,437.2z"/>
<path class="st5" d="M610.53,441.31c-1.5,7.27-5.4,13.54-10.92,18.39c-9.18-6.66-22.13-12.25-36.99-15.31
	c-14.86-3.07-28.96-3.07-40.03-0.58c-3.15-6.64-4.25-13.94-2.75-21.22c4.27-20.7,28.04-33.29,53.08-28.13
	C597.96,399.64,614.8,420.61,610.53,441.31z"/>
<g>
	<ellipse transform="matrix(0.7071 -0.7071 0.7071 0.7071 -187.7486 455.61)" class="st6" cx="456.1" cy="454.44" rx="44" ry="44"/>
	<path d="M456.1,413.94c22.37,0,40.5,18.13,40.5,40.5c0,22.37-18.13,40.5-40.5,40.5c-22.37,0-40.5-18.13-40.5-40.5
		C415.6,432.07,433.73,413.94,456.1,413.94 M456.1,406.94c-26.19,0-47.5,21.31-47.5,47.5s21.31,47.5,47.5,47.5s47.5-21.31,47.5-47.5
		S482.29,406.94,456.1,406.94L456.1,406.94z"/>
</g>
<path class="st7" d="M486.76,485.51c-8.76-26.11-27.3-37.61-56.04-51.19"/>
<path class="st7" d="M443.72,496.96c-4.88-18.36-1.07-26.87,3.94-38.87c5.29-12.65,12.34-19.71,24.3-33.2"/>
<g>
	<g>
		<path d="M302.33,152.94c1.79,2.85-0.26,5.97-6.01,9.62c-6.4,4.07-12.79,5.31-19.49,3.66c-2.89-0.71-5.21-1.71-6.92-3.04
			c-1.71-1.33-5.6-5.06-11.74-11.12c-3.65-3.69-7.67-5.27-12.05-4.61c-4.39,0.66-10.14,3.63-17.01,9.16
			c8.36,9.52,16.71,19.04,25.07,28.56c1.06,1.21,3.03,0.94,5.69-0.79c0.75-0.48,2.64-1.89,5.54-4.11c1.02-0.78,1.73-0.94,2.14-0.44
			c0.46,0.56,0.02,1.35-1.31,2.39c-0.56,0.44-0.84,0.66-1.4,1.1c-0.7,0.55-4.1,3.19-10.02,8.24c-1.14,0.97-3.07,2.63-5.76,5.02
			c-2.62,2.33-4.31,3.9-5.12,4.65c-1.73,1.6-2.58,2.4-4.29,4.03c-1.6,1.53-2.66,2.06-3.17,1.55c-0.4-0.39,0.41-1.67,2.49-3.74
			c3.36-3.34,4.97-5.4,4.66-6.32c0.02-0.56-0.91-1.84-2.8-3.82c-15.34-16.07-30.68-32.15-46.03-48.22
			c-2.22-2.33-3.95-3.38-5.16-3.14c-1.22,0.24-3.88,2.12-7.73,5.74c-2.24,2.11-3.61,2.98-4.13,2.47c-0.58-0.56-0.15-1.54,1.29-2.93
			c0.27-0.26,0.7-0.62,1.3-1.08c7.29-6.76,11.01-10.02,18.58-16.3c1.87-1.6,4.53-3.86,7.82-6.74c3.66-3.2,6.3-5.45,7.84-6.66
			c8.98-6.98,17.34-10.84,24.67-11.82c7.33-0.98,12.56,1.03,15.78,5.73c3.17,4.63,3.08,10.18,0.02,16.7
			c-3.05,6.52-8.78,13.08-16.65,20.17c-0.74,0.67-1.1,1.12-1.09,1.31c0.21,0.25,0.74,0.03,1.62-0.66
			c10.13-6.07,18.43-8.22,24.55-7.03c6.12,1.2,13.06,6.29,20.79,15.16c4.42,4.98,8.57,6.18,12.55,3.69
			c1.24-0.78,1.74-1.36,1.48-1.77c-0.04-0.07-0.13-0.11-0.26-0.12c-0.9-0.48-1.5-0.95-1.81-1.42c-0.92-1.41-0.45-2.7,1.41-3.83
			C299.71,150.99,301.27,151.24,302.33,152.94z M240.39,121.52c-7.68-10.27-19.47-7.25-28.36-0.15c-3.14,2.51-5.03,4.53-5.68,6.01
			c-0.65,1.48-0.36,2.92,0.86,4.31c6.74,7.68,13.48,15.35,20.21,23.03c8.33-6.86,13.59-12.58,15.65-17.71
			C245.14,131.87,244.28,126.71,240.39,121.52z"/>
		<path d="M357.23,124.26c0.51,1.26-0.56,3.18-3.14,5.81c-2.58,2.63-5.28,4.56-8.17,5.81c-6.04,2.62-10.39,1.57-13.16-3.4
			c-0.76,6.89-4.46,11.92-11.25,15.5c-3.65,1.92-7.14,2.68-10.54,2.26c-3.41-0.42-5.96-1.97-7.63-4.7
			c-3.41-5.61-1.87-12.64,5.27-20.74c2.47-2.75,7.25-6.69,14.54-11.51c-0.53-1.08-0.8-1.61-1.33-2.69
			c-3.11-6.31-5.6-10.27-7.48-11.85c-3.39-2.91-7.93-3.03-13.46-0.21c-3.46,1.76-5.97,3.95-7.5,6.5c-1.54,2.56-1.7,4.84-0.53,6.85
			c0.32,0.56,1.06,0.51,2.23-0.13c1.17-0.63,2.46-0.78,3.86-0.44c1.4,0.34,2.39,1.04,2.97,2.09c1.71,3.08,0.52,5.68-3.53,7.9
			c-2.12,1.16-4.17,1.61-6.18,1.33c-2.01-0.28-3.53-1.23-4.53-2.87c-1.95-3.22-1.92-7.04,0.28-11.35
			c2.43-4.75,7.34-9.11,14.61-12.75c10.95-5.47,18.87-6.24,23.36-2.96c1.66,1.28,3.61,4.4,5.85,9.35c3.7,8.17,5.55,12.25,9.24,20.42
			c1.52,3.35,2.45,5.29,2.8,5.84c1.63,2.43,3.51,3.18,5.65,2.29c2.5-1.04,4.25-2.6,5.26-4.72c0.57-1.17,1.08-1.84,1.54-2.02
			C356.73,123.68,357.05,123.81,357.23,124.26z M327.91,122.95c-1.55-3.14-2.32-4.71-3.87-7.85c-6.34,4.47-10.38,8.55-12.24,12
			c-1.86,3.45-1.83,6.79-0.02,9.99c1.26,2.23,3.1,3.63,5.48,4.22c2.39,0.59,4.76,0.28,7.17-0.93c3.7-1.87,5.8-5,6.39-9.52
			C330.97,129.82,330,127.18,327.91,122.95z"/>
		<path d="M394.26,110.44c0.2,0.69-0.64,2.24-2.44,4.63c-3.08,4.09-7.27,6.93-12.61,8.65c-4.98,1.6-9.09,1.86-12.41,0.69
			c-1.9-0.67-3.98-3.89-6.21-9.69c-4.27-11.07-8.53-22.14-12.8-33.22c-0.39-0.7-1.11-0.91-2.17-0.6c-2.34,0.87-3.5,1.31-5.83,2.21
			c-2.25,0.87-3.47,1.06-3.69,0.55c-0.22-0.51,0.22-1.03,1.31-1.55c7.71-3.64,12.89-8.7,15.66-15.52c0.39-0.9,1.06-1.51,2.02-1.83
			c0.74-0.25,1.21-0.1,1.39,0.42c0.06,0.18,0.09,0.27,0.16,0.45c0.13,0.38,0.35,1.02,0.67,1.92c1.1,3.17,2.22,5.72,2.74,5.9
			c0.51,0.17,2.58-0.59,4.78-1.28c5.75-1.81,9.55-3.11,11.32-4c0.39-0.2,0.76-0.34,1.07-0.43c0.84-0.24,1.36-0.02,1.56,0.64
			c0.32,1.1-3.78,2.76-12.22,5.38c-1.46,0.45-3.59,1.12-6.39,2.04c2.9,8.37,4.35,12.55,7.26,20.91c3.66,10.55,6.29,17.06,7.86,19.52
			c1.57,2.47,4.13,3.12,7.71,2.02c3.04-0.93,5.99-3.33,9.01-7.22c0.26-0.48,0.63-0.79,1.1-0.92
			C393.76,109.95,394.15,110.05,394.26,110.44z"/>
		<path d="M407.86,39.69c1.15,5.7-1.27,10.41-6.99,14.34c-3.95,2.71-7.33,4.45-10.24,5.16c-1.19,0.29-1.86,0.13-2.02-0.49
			c-0.14-0.54,0.43-1.08,1.65-1.63c4.69-2.13,7.94-4.17,9.6-5.99c1.66-1.82,2.21-4.05,1.63-6.7c-0.46-2.1-1.58-3.74-3.38-4.9
			c0.6,2.64-1.52,4.46-6.31,5.56c-2.45,0.57-4.62,0.49-6.53-0.22c-1.91-0.72-3.09-1.88-3.52-3.5c-0.51-1.92,0.09-3.83,1.86-5.69
			c1.76-1.86,4.21-3.17,7.32-3.87c4.25-0.96,8.02-0.66,11.21,0.85C405.32,34.11,407.21,36.5,407.86,39.69z"/>
		<path d="M476.97,89.72c0.19,4.62-1.72,8.61-5.57,12.06c-3.85,3.45-8.45,5.38-13.96,5.9c-3.18,0.3-7.14-0.25-11.99-1.56
			c-1.3-0.4-2.42-0.53-3.36-0.4c-1.32,0.18-2.2,1.07-2.62,2.65c-0.23,1-0.67,1.54-1.32,1.64c-0.65,0.1-1.03-0.17-1.13-0.8
			c-0.06-0.39-0.14-0.86-0.22-1.41c-0.25-1.57-0.62-3.89-1.11-6.96c-0.04-0.24-0.19-1.18-0.45-2.83c-0.26-1.65-0.44-2.75-0.52-3.3
			c-0.08-0.52-0.12-0.78-0.21-1.3c-0.14-0.86,0.14-1.35,0.83-1.45c0.79-0.12,1.3,0.26,1.53,1.11c1.14,3.56,2.83,6.24,5.04,8.04
			c4.42,3.62,9.7,5.07,16.04,4.48c3.41-0.31,6.08-1.36,8.06-3.17c1.98-1.82,2.9-4.1,2.72-6.89c-0.2-3.1-1.59-5.5-4.2-7.15
			c-1.47-0.93-2.8-1.57-3.98-1.92c-1.18-0.34-4.65-1.13-10.45-2.2c-11.51-2.12-18-6.13-19.05-12.75c-0.7-4.41,0.68-8.42,4.29-11.97
			c3.61-3.55,8.5-5.68,14.55-6.28c2.16-0.21,5.45-0.05,9.83,0.58c1.1,0.16,2.07,0.21,2.94,0.15c2.26-0.16,3.61-1.03,4.05-2.65
			c0.28-0.81,0.74-1.24,1.39-1.28c0.76-0.04,1.16,0.26,1.19,0.89c0,0.08,0.02,0.32,0.04,0.72c0.11,2,0.17,3,0.28,5
			c0,1.91,0.45,4.96,1.31,9.13c0.01,0.1,0.01,0.14,0.01,0.24c0.03,0.64-0.37,0.97-1.21,1.02c-0.63,0.03-1.48-1.13-2.59-3.47
			c-1.34-2.81-3.57-5.01-6.67-6.55c-3.1-1.54-6.63-2.13-10.53-1.74c-3.68,0.37-6.62,1.55-8.76,3.49c-2.15,1.95-3.02,4.2-2.68,6.73
			c0.54,3.95,4.48,6.44,11.61,7.8c11.09,2.11,18.01,4.51,20.96,6.51C474.87,82.39,476.8,85.74,476.97,89.72z"/>
		<path d="M600.92,93.08c0.05-0.15-0.36,0.85-1.22,3.01c-1.72,4.32-3.17,8.55-4.4,12.67c-0.14,0.46-0.32,1.42-0.55,2.89
			c-0.23,1.47-0.65,3.19-1.24,5.18c-0.12,0.41-0.18,0.62-0.31,1.03c-0.3,0.99-0.81,1.39-1.54,1.18c-0.73-0.21-1.21-0.96-1.43-2.26
			c-0.56-2.88-1.41-4.88-2.51-5.99c-8.09,3.07-16.64,3.57-25.99,1.83c-12.36-2.3-24.26-7.84-32.95-17.07
			c-8.24-8.75-12.91-19.9-12.2-31.88c0.72-12.13,6.76-22.8,17.04-29.4c12.72-8.18,27.13-8.34,41.1-6.34
			c5.72,0.82,10.55,2.38,13.91,3.79c3.36,1.41,7.41,3.72,11.95,6.98c2.23,1.6,3.95,2.59,5.19,2.91c1.01,0.26,2.14-0.1,3.39-1.09
			c2.07-1.76,3.58-2.5,4.49-2.25c0.91,0.25,1.27,0.68,1.09,1.29c-0.09,0.31-0.35,0.77-0.78,1.4c-2.32,3.33-4.91,10.06-7.83,20.17
			c-0.42,1.46-0.82,2.25-1.21,2.4c-0.39,0.14-0.85,0.14-1.38,0c-1.07-0.29-1.56-1.2-1.47-2.74c0.31-6.51-0.48-11.62-2.37-15.28
			c-4.66-9.51-15.24-12.85-24.05-14.98c-8.73-2.11-17.13-0.7-23.11,2.83c-11.43,7.05-16.71,19-18.22,31.97
			c-1.28,10.99,0.38,22.74,6.88,31.91c5.01,7.06,12.1,11.31,21.56,13.14c4.87,0.94,9.5,0.9,14.02-0.14
			c4.51-1.04,8.36-2.93,11.45-5.75c3.55-3.24,6.56-7.04,8.98-11.34c0.92-1.73,1.84-2.47,2.73-2.22
			C600.93,91.22,601.26,91.94,600.92,93.08z"/>
		<path d="M659.14,138.39c-0.63,1.2-2.84,1.68-6.59,1.51c-3.75-0.16-7.03-0.87-9.91-2.16c-6.01-2.7-8.05-6.57-6.05-11.88
			c-5.79,4-12.09,4.62-19.23,2.04c-3.84-1.39-6.67-3.42-8.54-6.18c-1.87-2.76-2.34-5.64-1.32-8.67c2.08-6.2,8.4-9.73,19.22-9.9
			c3.7-0.02,9.82,0.86,18.32,2.99c0.48-1.1,0.72-1.65,1.2-2.75c2.81-6.44,4.22-10.87,4.21-13.3c0.01-4.4-2.87-7.79-8.63-9.96
			c-3.6-1.36-6.9-1.74-9.85-1.17c-2.95,0.57-4.8,1.97-5.58,4.15c-0.22,0.6,0.29,1.11,1.54,1.54c1.24,0.43,2.19,1.27,2.84,2.52
			c0.65,1.25,0.75,2.43,0.33,3.55c-1.25,3.28-4.01,4.13-8.32,2.66c-2.25-0.77-3.91-1.97-4.99-3.62c-1.08-1.65-1.33-3.38-0.72-5.2
			c1.19-3.55,4.12-6.06,8.83-7.31c5.19-1.38,11.69-0.69,19.22,2.21c11.34,4.37,17.17,9.66,17.61,15.11
			c0.11,2.06-1.01,5.55-3.35,10.45c-3.86,8.1-5.78,12.15-9.64,20.24c-1.58,3.32-2.46,5.29-2.65,5.91c-0.79,2.8-0.13,4.67,1.98,5.66
			c2.46,1.15,4.83,1.4,7.14,0.76c1.28-0.35,2.14-0.42,2.59-0.2C659.26,137.64,659.37,137.96,659.14,138.39z M640.75,116.04
			c1.4-3.21,2.1-4.81,3.5-8.02c-7.6-1.68-13.35-1.92-17.2-0.99c-3.85,0.93-6.38,3.16-7.65,6.6c-0.89,2.4-0.77,4.66,0.32,6.79
			c1.09,2.13,2.87,3.66,5.37,4.61c3.84,1.46,7.62,0.92,11.49-1.63C637.47,122.81,638.86,120.36,640.75,116.04z"/>
		<path d="M735.53,130.46c-0.33,0.45-1.37,0.04-3.12-1.18c-0.64-0.45-1.47-1.03-2.49-1.73c-0.33-0.23-0.5-0.34-0.83-0.57
			c-1.67-1.14-3.69-1.37-5.42-0.47c-1.38,0.72-2.86,1.77-4.28,2.66c-9.66,6.06-19.1,12.25-28.49,18.71
			c-1.47,0.98-3.72,2.51-6.52,4.64c-3.7,2.83-5.96,4.16-6.79,3.67c-0.59-0.34-0.77-1.33-0.57-2.97c0.08-1.07,0.22-2.23,0.41-3.51
			c1.12-9.5,1.99-19.12,2.22-28.69c1.02-13.03,0.91-20.46,0.28-21.85c-0.48-1.06-1.79-2.06-3.71-2.91c-1.37-0.67-2.06-1-3.43-1.65
			c-0.99-0.47-1.38-0.94-1.15-1.4c0.23-0.47,1.05-0.37,2.45,0.29c4.2,2,6.28,3.03,10.43,5.15c1.58,0.81,4.69,2.4,9.29,4.9
			c4.98,2.71,7.54,4.2,7.73,4.31c0.29,0.17,0.44,0.25,0.73,0.42c0.97,0.55,1.3,1.08,1.01,1.56c-0.34,0.55-1.99-0.05-4.98-1.74
			c-3-1.69-4.67-2.22-4.99-1.67c-0.44,0.77-0.69,2.14-0.77,4.11c-0.06,3.62-0.51,11.23-1.87,22.66c-0.69,5.08-1.17,8.99-1.38,11.77
			c6.26-4.58,11.86-8.35,16.69-11.39c9.75-6.21,15.12-9.5,15.67-10.29c0.41-0.6-0.08-1.36-1.49-2.27c-0.75-0.49-1.36-0.88-1.83-1.18
			c-0.51-0.33-0.76-0.49-1.27-0.81c-1.23-0.78-1.69-1.39-1.38-1.86c0.27-0.41,0.97-0.25,2.11,0.47c3.52,2.23,5.27,3.37,8.75,5.7
			c2.13,1.43,3.19,2.15,5.3,3.61C734.64,128.82,735.87,130.01,735.53,130.46z"/>
		<path d="M756.72,198.42c-0.58,0.56-2.19,0.99-4.8,1.32c-2.62,0.33-4.97,0.41-7.06,0.21c-5.68-0.47-11.12-3.04-16.56-7.68
			c-6.81-5.8-10.94-12.33-12.58-20.08c-1.64-7.75-0.36-14.73,4.25-20.9c4.8-6.43,11.33-10.06,19.79-10.46
			c8.45-0.39,16.68,2.58,24.23,8.95c6.23,5.26,10.21,11.11,11.88,17.24c1.68,6.13,0.65,11.15-2.86,15.05
			c-2.84-2.2-6.36-5.34-10.64-9.33c-3.43-3.11-5.17-4.64-8.67-7.64c-0.58-0.5-11.2-12.24-15.49-12.13c-1.04,0.03-3.89,3.52-5.4,5.39
			c-5.08,6.29-7.38,12.35-7.11,18.14c0.27,5.79,3.03,10.83,8.34,15.46c3.03,2.64,5.92,4.28,8.73,4.89
			c2.81,0.61,6.69,0.44,11.72-0.42c0.76-0.16,1.4,0.01,1.93,0.52C757.02,197.54,757.12,198.03,756.72,198.42z M763.79,171.26
			c6.33-7.29,6.03-14.19-1.14-20.23c-7.08-5.97-14.73-5.77-22.54,0.37C748.25,157.65,756.21,164.33,763.79,171.26z"/>
	</g>
</g>
<g>
	<g>
		<path d="M139.07,757.25c-1.39,2.69-4.02,1.62-7.83-3.32c-4.25-5.51-6.44-11.97-6.53-19.18c-0.05-3.11,0.25-5.67,0.86-7.67
			c0.61-2,2.45-6.73,5.6-14c1.89-4.36,2.45-8.61,1.61-12.71c-0.84-4.1-3.21-9-7.07-14.85c-5.67,9.46-11.34,18.93-17,28.39
			c-0.72,1.2-0.34,3.17,1.16,5.89c0.44,0.74,1.6,2.58,3.52,5.36c0.67,0.97,0.89,1.7,0.61,2.19c-0.32,0.55-0.93,0.19-1.83-1.08
			c-0.38-0.54-0.57-0.81-0.95-1.35c-0.47-0.68-2.78-3.92-6.85-9.91c-0.78-1.15-2.11-3.11-3.98-5.9c-1.81-2.72-3-4.52-3.56-5.38
			c-1.2-1.84-1.81-2.76-3-4.61c-1.13-1.74-1.52-2.88-1.18-3.4c0.26-0.41,1.16,0.52,2.67,2.74c2.44,3.62,3.98,5.27,4.59,4.93
			c0.39,0.02,1.21-0.98,2.45-2.99c10.13-16.3,20.25-32.59,30.38-48.89c1.47-2.36,2.15-4.08,2.04-5.16c-0.1-1.08-1.14-3.21-3.11-6.31
			c-1.14-1.79-1.57-2.96-1.24-3.48c0.37-0.58,0.93-0.3,1.67,0.85c0.14,0.22,0.33,0.57,0.57,1.05c3.63,5.82,5.46,8.68,9.16,14.33
			c0.94,1.39,2.28,3.34,4.05,5.67c1.94,2.57,3.38,4.39,4.15,5.47c4.45,6.28,7.3,12.41,8.55,18.57c1.25,6.16,0.71,11.48-1.69,15.96
			c-2.37,4.41-5.74,6.21-10.15,5.26c-4.4-0.96-9.2-4.55-14.3-10.87c-0.49-0.58-0.85-0.85-0.91-0.79c-0.15,0.13,0.04,0.72,0.54,1.43
			c4.63,8.56,7.06,15.82,7.19,22.03c0.13,6.21-1.98,14.35-6.16,24.39c-2.38,5.7-2.24,10.32,0.37,13.69c0.82,1.05,1.33,1.38,1.53,1
			c0.03-0.06,0.04-0.16,0.02-0.3c0.09-1.05,0.26-1.79,0.5-2.24c0.7-1.33,1.65-1.23,2.84,0.29
			C139.65,754.03,139.89,755.65,139.07,757.25z M148.36,688.71c4.96-8.86,4.4-17.33-1.53-25.79c-1.58-2.25-2.81-3.53-3.7-3.82
			c-0.89-0.29-1.76,0.26-2.58,1.64c-5.48,9.16-8.23,13.74-13.71,22.9c4.73,7,8.84,10.8,12.23,11.54
			C142.46,695.91,145.55,693.73,148.36,688.71z"/>
		<path d="M175.21,797.07c-0.51,1.15-2.05,1.28-4.62,0.33c-2.57-0.95-4.8-2.48-6.67-4.56c-3.9-4.36-4.81-9.06-2.76-13.96
			c-4.42,2.47-8.91,1.07-13.35-4.26c-2.39-2.87-3.93-6.09-4.64-9.63c-0.7-3.54-0.38-6.6,0.93-9.17c2.7-5.27,7.48-6.09,14.33-2.85
			c2.34,1.15,6.01,3.88,11.04,8.04c0.47-0.99,0.7-1.49,1.17-2.48c2.75-5.83,4.32-9.95,4.72-12.35c0.74-4.36-0.36-8.24-3.3-11.73
			c-1.84-2.18-3.68-3.4-5.52-3.66c-1.85-0.26-3.24,0.54-4.18,2.42c-0.26,0.52-0.07,1.17,0.58,1.96c0.64,0.78,1.03,1.88,1.16,3.28
			c0.13,1.41-0.04,2.6-0.53,3.58c-1.42,2.87-3.29,2.91-5.61,0.07c-1.21-1.48-1.96-3.22-2.24-5.19c-0.28-1.97-0.02-3.73,0.77-5.27
			c1.55-3.02,3.87-4.43,6.89-4.23c3.32,0.22,6.9,2.64,10.74,7.16c5.78,6.81,8.45,12.8,7.95,18.32c-0.22,2.08-1.37,5.4-3.45,9.95
			c-3.44,7.51-5.15,11.27-8.59,18.78c-1.41,3.08-2.21,4.92-2.4,5.52c-0.82,2.72-0.55,4.85,0.82,6.35c1.59,1.75,3.21,2.51,4.83,2.27
			c0.9-0.13,1.49-0.04,1.78,0.27C175.34,796.3,175.39,796.66,175.21,797.07z M165.26,769.95c1.37-2.9,2.05-4.35,3.42-7.25
			c-4.57-3.52-8.15-5.48-10.78-5.77c-2.62-0.29-4.68,1.04-6.17,4.03c-1.03,2.08-1.38,4.39-1.03,6.94c0.35,2.55,1.29,4.74,2.83,6.56
			c2.36,2.79,5.02,3.42,7.95,1.89C162.16,775.99,163.42,773.86,165.26,769.95z"/>
		<path d="M199.26,819.5c-0.25,0.63-1.42,1.05-3.53,1.23c-3.6,0.27-7.15-1.34-10.59-4.82c-3.2-3.25-5.2-6.72-5.99-10.31
			c-0.45-2.06,0.47-5.73,2.77-11.04c4.39-10.13,8.78-20.26,13.17-30.39c0.24-0.74,0.1-1.43-0.41-2.07c-1.24-1.31-1.85-1.97-3.09-3.3
			c-1.19-1.28-1.68-2.16-1.47-2.63c0.21-0.47,0.62-0.42,1.24,0.14c4.39,4.03,8.82,4.85,13.2,2.48c0.58-0.29,1.12-0.2,1.6,0.3
			c0.37,0.38,0.46,0.82,0.26,1.3c-0.07,0.17-0.1,0.25-0.17,0.41c-0.14,0.34-0.39,0.93-0.74,1.75c-1.21,2.89-1.88,4.86-2.01,5.91
			c0.43,0.64,1.22,1.54,2.37,2.7c3.01,3.04,5.1,4.83,6.23,5.45c0.25,0.15,0.46,0.3,0.62,0.46c0.44,0.43,0.54,0.95,0.3,1.55
			c-0.4,1-2.85-0.65-7.3-5.12c-0.77-0.77-1.89-1.91-3.37-3.42c-3.2,7.64-4.81,11.46-8.01,19.1c-4.04,9.64-6.37,15.88-6.99,18.73
			c-0.62,2.85,0.2,5.44,2.47,7.71c1.92,1.92,4.6,2.77,8.02,2.51c0.37-0.12,0.7-0.04,1,0.24C199.27,818.78,199.4,819.16,199.26,819.5
			z"/>
		<path d="M274.5,858.43c0.04-0.15-0.31,0.82-1.04,2.92c-1.48,4.2-2.79,8.32-3.95,12.39c-0.13,0.45-0.33,1.42-0.6,2.89
			c-0.27,1.48-0.68,3.19-1.24,5.15c-0.11,0.41-0.17,0.61-0.29,1.02c-0.28,0.98-0.66,1.3-1.16,0.95c-0.5-0.34-0.77-1.21-0.83-2.6
			c-0.16-3.08-0.56-5.3-1.21-6.66c-5.81,1.6-11.9,0.06-18.1-4.68c-9.36-7.16-15.5-17.75-18.39-29.03
			c-2.96-11.54-2.08-24.18,1.49-35.18c2.48-7.64,9.25-17.97,17.32-21.18c7.37-2.93,14.84-1.49,22.59,4.49
			c2.82,2.18,4.99,4.19,6.5,6.08c1.51,1.89,3.23,4.73,5.19,8.48c0.95,1.86,1.74,3,2.37,3.44c0.51,0.36,1.16,0.1,1.96-0.79
			c1.34-1.59,2.23-2.23,2.68-1.92c0.45,0.31,0.59,0.77,0.42,1.37c-0.09,0.3-0.28,0.75-0.59,1.35c-1.65,3.18-3.9,9.72-6.73,19.63
			c-0.41,1.43-0.73,2.19-0.97,2.3c-0.24,0.1-0.5,0.05-0.8-0.15c-0.58-0.41-0.75-1.38-0.52-2.93c0.98-6.53,1.22-11.73,0.71-15.62
			c-1.03-7.97-4.43-14.05-10.26-18.53c-4.5-3.45-8.67-4.3-12.59-2.48c-9.41,4.73-14.55,15.61-17.74,24.98
			c-3.58,10.52-5.56,22.2-3.46,33.32c1.66,8.79,5.68,15.72,11.88,20.44c3.19,2.43,6.41,3.65,9.62,3.68
			c3.21,0.03,6.04-1.13,8.37-3.43c2.7-2.66,5.02-6.08,6.97-10.13c0.76-1.64,1.4-2.27,1.95-1.89
			C274.68,856.53,274.82,857.3,274.5,858.43z"/>
		<path d="M319.76,910.45c-0.12,0.55-0.89,0.48-2.31-0.15c-4.99-2.23-9.72-3.27-14-3.14c-0.29,0.01-0.53-0.04-0.72-0.15
			c-0.38-0.22-0.5-0.63-0.36-1.25c0.61-2.6,0.91-3.89,1.52-6.49c-4.04,3.31-8.71,3.42-13.92,0.26c-4.64-2.82-7.54-6.56-8.67-11.08
			c-0.45-1.87-0.6-3.43-0.45-4.66c0.15-1.23,0.89-4.33,2.21-9.31c2.76-10.36,4.14-15.54,6.9-25.9c0.7-2.64,1-4.26,0.88-4.87
			s-0.84-1.39-2.18-2.35c-0.46-0.3-0.69-0.45-1.15-0.76c-1.63-0.9-2.34-1.74-2.14-2.5c0.15-0.53,0.72-0.46,1.72,0.21
			c1.06,0.7,2.56,1.81,4.51,3.32c0.98,0.75,1.55,1.18,1.73,1.29c2.07,1.33,4.03,2.39,5.89,3.18c-2.71,10.61-5.42,21.21-8.13,31.82
			c-1.5,5.85-2.18,9.93-2.03,12.21c0.25,3.58,1.92,6.33,5.02,8.18c3.35,2,6.24,1.73,8.6-0.75c1.71-1.8,3.19-5.41,4.45-10.8
			c1.67-7.15,2.5-10.73,4.17-17.88c0.61-2.62,0.98-4.63,1.1-6.04c0.36-1.52,0.53-2.28,0.89-3.81c0.21-1.19,0.17-1.97-0.11-2.35
			c-0.28-0.38-0.94-0.88-1.95-1.45c-2.48-1.39-3.7-2.46-3.52-3.23c0.11-0.46,0.79-0.32,2.05,0.41c0.32,0.19,0.48,0.28,0.81,0.47
			c0.48,0.28,2.06,1.2,4.75,2.72c3.59,2.02,5.81,3.22,6.66,3.67c-2.41,10.84-4.83,21.67-7.24,32.51c-1.25,5.59-1.94,9.18-2.08,10.75
			c-0.14,1.58,0.16,2.69,0.89,3.35c0.73,0.65,2.48,1.72,5.26,3.16C319.56,909.44,319.88,909.91,319.76,910.45z"/>
		<path d="M341.59,924.51c-0.13,0.71-0.75,0.82-1.85,0.33c0.06,0.03-0.7-0.41-2.29-1.29c-1.89-1.05-3.51-1.88-4.8-2.48
			c-4.03-1.9-6.04-2.88-10.05-4.89c-0.39,0.15-0.81,0.11-1.25-0.11c-0.71-0.36-1-0.83-0.88-1.41c0.17-0.83,0.91-0.89,2.18-0.27
			c2.4,1.17,3.83,1.58,4.13,1.34c0.3-0.24,0.74-1.81,1.32-4.72c2.4-11.88,4.8-23.76,7.2-35.64c0.33-1.99,0.49-3.18,0.47-3.58
			c-0.02-0.4-0.36-0.76-1.03-1.09c-1.06-0.52-1.59-0.79-2.64-1.32c-0.24-0.12-0.55-0.28-0.91-0.46c-0.67-0.34-0.94-0.78-0.83-1.33
			c0.1-0.48,0.67-0.49,1.7-0.05c4.04,1.76,7.75,2.23,11.06,1.36c0.41-0.11,0.62-0.16,1.03-0.27c0.25,1.4,0.08,3.68-0.53,6.82
			c0.03-0.16-0.05,0.24-0.23,1.18c-0.18,0.94-0.48,2.48-0.88,4.6c-2.06,10.73-4.12,21.46-6.18,32.18c-0.6,3.14-0.91,5.01-0.92,5.61
			s0.28,1.1,0.81,1.53c0.9,0.73,2.3,1.57,4.17,2.41C341.31,923.36,341.7,923.88,341.59,924.51z M348.48,847.61
			c-0.68,3.54-2.36,4.7-5.03,3.42c-1.13-0.54-1.98-1.49-2.55-2.85c-0.57-1.36-0.71-2.74-0.42-4.15c0.75-3.68,2.44-4.87,5.07-3.61
			C348.18,841.68,349.16,844.06,348.48,847.61z"/>
		<path d="M377.39,923.18c-0.66,4.67-2.59,8.17-5.82,10.44c-3.23,2.27-6.79,2.69-10.62,1.21c-2.21-0.85-4.75-2.86-7.59-6.07
			c-0.75-0.9-1.44-1.48-2.08-1.75c-0.9-0.38-1.71,0.1-2.42,1.41c-0.42,0.84-0.86,1.17-1.31,0.98c-0.45-0.19-0.62-0.61-0.51-1.24
			c0.07-0.4,0.15-0.87,0.25-1.43c0.28-1.58,0.69-3.92,1.24-7.02c0.04-0.24,0.21-1.19,0.5-2.85c0.29-1.67,0.49-2.77,0.59-3.33
			c0.09-0.52,0.14-0.78,0.23-1.31c0.15-0.87,0.45-1.21,0.9-1.02c0.51,0.22,0.72,0.78,0.63,1.68c-0.26,3.84,0.07,7.07,1.01,9.69
			c1.87,5.23,5.01,8.74,9.39,10.41c2.35,0.9,4.38,0.76,6.07-0.39c1.69-1.16,2.74-3.15,3.16-5.96c0.47-3.13,0.03-5.91-1.29-8.34
			c-0.74-1.37-1.44-2.42-2.11-3.13c-0.67-0.72-2.66-2.58-5.95-5.66c-6.5-6.14-9.08-12.68-7.91-19.35c0.78-4.45,2.61-7.68,5.44-9.74
			c2.83-2.06,5.93-2.42,9.33-1.1c1.21,0.47,2.96,1.65,5.25,3.52c0.57,0.47,1.1,0.79,1.59,0.97c1.28,0.47,2.18-0.09,2.74-1.54
			c0.28-0.72,0.64-1.04,1-0.91c0.43,0.15,0.59,0.55,0.5,1.19c-0.01,0.08-0.05,0.32-0.11,0.72c-0.3,2.02-0.44,3.03-0.74,5.05
			c-0.34,1.9-0.64,5.04-0.89,9.42c-0.01,0.1-0.02,0.14-0.04,0.24c-0.09,0.64-0.39,0.87-0.89,0.7c-0.38-0.13-0.66-1.52-0.87-4.14
			c-0.25-3.15-1.1-5.93-2.52-8.33c-1.43-2.4-3.24-4.03-5.45-4.89c-2.09-0.81-3.94-0.66-5.57,0.47c-1.63,1.13-2.67,2.96-3.1,5.5
			c-0.68,3.98,0.91,7.89,4.75,11.61c5.99,5.8,9.79,10.04,11.25,12.84C377.29,915.33,377.96,919.15,377.39,923.18z"/>
		<path d="M401.76,945.87c-0.08,0.73-0.68,0.94-1.81,0.64c0.07,0.02-0.73-0.29-2.35-0.9c-1.94-0.72-3.6-1.27-4.92-1.66
			c-4.11-1.21-6.17-1.84-10.27-3.17c-0.37,0.21-0.79,0.25-1.25,0.1c-0.72-0.24-1.04-0.65-0.96-1.25c0.12-0.85,0.84-1.03,2.14-0.63
			c2.45,0.75,3.89,0.93,4.17,0.63c0.28-0.29,0.61-1.93,0.99-4.91c1.57-12.21,3.14-24.43,4.71-36.64c0.2-2.03,0.27-3.25,0.23-3.64
			c-0.05-0.39-0.41-0.69-1.1-0.91c-1.08-0.34-1.62-0.51-2.7-0.86c-0.25-0.08-0.56-0.18-0.93-0.3c-0.68-0.22-0.99-0.62-0.91-1.18
			c0.07-0.49,0.63-0.61,1.67-0.33c4.11,1.07,7.82,0.91,11.03-0.51c0.4-0.18,0.6-0.26,1-0.44c0.34,1.35,0.32,3.64-0.06,6.87
			c0.02-0.16-0.03,0.24-0.14,1.21c-0.12,0.97-0.3,2.54-0.56,4.72c-1.31,11.01-2.62,22.02-3.93,33.03c-0.38,3.23-0.56,5.14-0.53,5.73
			c0.03,0.59,0.35,1.05,0.91,1.39c0.94,0.57,2.38,1.17,4.29,1.69C401.41,944.78,401.83,945.23,401.76,945.87z M403.37,868.28
			c-0.44,3.64-2.02,5.07-4.75,4.25c-1.15-0.35-2.06-1.15-2.71-2.4c-0.66-1.25-0.89-2.61-0.7-4.06c0.49-3.79,2.08-5.25,4.77-4.44
			C402.68,862.44,403.81,864.64,403.37,868.28z"/>
		<path d="M450.93,955.77c-0.03,0.61-0.55,0.85-1.55,0.72c-0.48-0.07-0.72-0.1-1.2-0.17c-1.2-0.17-2.83-0.4-4.9-0.72
			c-6.53-1-10.39-1.74-11.58-1.96c-0.28-0.05-0.42-0.08-0.7-0.13c-0.87-0.16-1.27-0.53-1.23-1.1c0.03-0.41,0.23-0.62,0.61-0.63
			c0.37-0.01,1.68,0.18,3.85,0.46c1.25,0.16,2.01,0.04,2.24-0.29c0.22-0.33,0.42-1.64,0.58-3.92c0.67-9.39,1-14.09,1.67-23.48
			c0.63-8.88,0.75-14.23,0.37-16.03c-0.81-3.85-2.8-6.06-6-6.67c-3.13-0.6-5.91,0.64-8.37,3.75c-0.72,0.92-1.17,2.31-1.34,4.18
			c-1.14,12.67-2.29,25.34-3.43,38.01c-0.09,0.98,0.57,1.66,1.98,2.04c1.21,0.31,1.81,0.46,3.02,0.75c0.67,0.14,0.99,0.49,0.94,1.06
			c-0.05,0.57-0.47,0.77-1.27,0.61c-0.64-0.13-0.96-0.2-1.59-0.33c-1.46-0.3-3.78-0.8-6.97-1.52c-0.73-0.17-2.3-0.52-4.72-1.11
			c-2.42-0.58-3.82-0.94-4.22-1.04c-0.24-0.06-0.36-0.09-0.6-0.15c-0.99-0.25-1.46-0.63-1.41-1.13c0.05-0.5,0.76-0.72,1.89-0.5
			c0.82,0.16,1.68,0.42,2.48,0.62c0.99,0.24,1.62,0.1,1.87-0.42c0.19-0.7,0.29-1.05,0.48-1.75c1.06-10.6,1.58-15.9,2.64-26.5
			c0.92-9.24,1.37-14.36,1.34-15.36c-0.03-1-0.76-1.68-2.2-2.04c-0.44-0.11-1.19-0.3-2.26-0.57c-0.19-0.05-0.28-0.07-0.47-0.12
			c-1.25-0.32-1.85-0.79-1.78-1.39c0.08-0.78,0.8-0.96,2.09-0.65c1.84,0.43,3.96,0.46,6.23,0.17c2.26-0.29,3.88-0.88,4.85-1.74
			c0.62-0.52,1.09-0.75,1.4-0.69c0.43,0.1,0.58,0.92,0.44,2.46c-0.21,2.34-0.32,3.52-0.53,5.86c3.76-4.74,8.15-6.6,13.27-5.67
			c4.49,0.82,7.59,3.49,9.33,8.14c0.98,2.63,1.26,7.38,0.84,14.25c-0.57,9.33-1.15,18.66-1.72,27.99c-0.16,2.62-0.15,4.07,0.03,4.34
			c0.37,0.55,1.32,0.94,2.85,1.15c0.2,0.03,0.56,0.08,1.1,0.15c0.28,0.04,0.42,0.06,0.7,0.1
			C450.64,954.92,450.96,955.24,450.93,955.77z"/>
		<path d="M491.9,946.15c-0.01,0.82-0.53,2.27-1.58,4.34c-1.05,2.07-2.12,3.74-3.2,5.02c-2.92,3.52-6.81,5.16-11.63,4.84
			c-6.02-0.4-10.98-3.54-14.75-9.3c-3.77-5.76-5.41-12.61-5-20.48c0.42-8.19,2.62-14.8,6.5-19.9c3.88-5.1,8.46-7.43,13.86-7.06
			c4.45,0.3,8.14,2.18,11.12,5.7c2.98,3.52,4.56,7.93,4.71,13.27c-2.06,0.37-4.79,0.45-8.18,0.21c-2.69-0.12-4.04-0.2-6.73-0.37
			c-0.45-0.03-9.96-1.83-11.55-0.56c-0.69,0.55-0.7,5.23-0.79,7.68c-0.34,8.26,0.66,14.74,3.04,19.42c2.38,4.68,5.93,7.21,10.6,7.48
			c2.66,0.16,4.82-0.49,6.44-1.9c1.62-1.41,3.39-4.19,5.28-8.33c0.27-0.65,0.64-0.97,1.1-0.96
			C491.64,945.29,491.9,945.58,491.9,946.15z M483.78,920.72c-0.07-9.87-2.68-14.9-7.83-15.25c-5.09-0.35-8.44,4.26-10.11,13.99
			C473.01,920.14,476.6,920.39,483.78,920.72z"/>
		<path d="M558.4,930.92c0.47,7.03-1.26,13.39-5.3,18.96c-4.04,5.58-9.19,8.74-15.34,9.37c-3.61,0.37-7.99-0.6-13.06-2.98
			c-1.35-0.65-2.36-0.96-3.03-0.92c-0.8,0.05-1.31,1.24-1.42,3.5c-0.06,1.16-0.46,1.79-1.27,1.83c-0.67,0.03-1.01-0.44-1.03-1.43
			c-0.01-0.66,0.01-1.15,0.07-1.48c0.43-5.04,0.6-9.69,0.51-13.97c-0.02-0.82,0.04-3.32-0.34-6.89c-0.05-0.47-0.12-1.14-0.14-1.97
			c-0.03-1.23,0.35-1.87,1.13-1.91c0.65-0.03,1.13,0.94,1.43,2.91c0.78,9.44,5.86,22.04,17.44,20.8c4.05-0.43,7.15-2.22,9.22-5.33
			c2.07-3.11,2.94-7.26,2.65-12.42c-0.26-4.58-1.54-8.35-3.81-11.31c-2.27-2.97-6.02-5.73-11.19-8.44
			c-6.23-3.26-10.52-6.73-12.95-10.2c-2.43-3.47-3.68-7.89-3.8-13.23c-0.15-6.82,1.38-12.52,4.52-17.18
			c3.13-4.65,7.13-7.19,12.08-7.7c2.05-0.21,4.92,0.42,8.65,1.84c1.3,0.49,2.26,0.69,2.87,0.61c0.67-0.09,1.09-0.32,1.29-0.67
			c0.19-0.36,0.33-1.26,0.44-2.66c0.06-0.83,0.38-1.29,0.92-1.37c0.6-0.09,0.93,0.36,0.99,1.34c0.04,0.66,0.04,1.15,0,1.49
			c-0.06,1.99-0.01,4.38,0.16,7.16c0.24,3.93,0.58,7.02,1.03,9.26c0.09,0.78,0.13,1.17,0.21,1.95c0.12,0.89-0.13,1.38-0.75,1.47
			c-0.68,0.1-1.2-0.77-1.56-2.62c-0.97-4.73-2.79-8.54-5.46-11.45c-2.66-2.91-5.52-4.2-8.6-3.88c-3.03,0.31-5.38,1.84-7.08,4.61
			c-1.7,2.78-2.5,6.41-2.36,10.93c0.16,5.26,1.62,9.39,4.43,12.36c1.57,1.68,4.92,3.95,10.11,6.65c6.11,3.18,10.63,6.46,13.49,10.03
			C556.43,921.56,558.06,925.85,558.4,930.92z"/>
		<path d="M586.93,948.73c0.07,0.73-0.46,1.23-1.58,1.49c0.07-0.02-0.75,0.08-2.41,0.3c-1.99,0.27-3.67,0.56-5,0.84
			c-4.14,0.88-6.21,1.28-10.36,2.04c-0.31,0.39-0.7,0.62-1.16,0.71c-0.73,0.13-1.12-0.11-1.16-0.71c-0.06-0.87,0.59-1.4,1.9-1.65
			c2.48-0.49,3.87-1.04,4.08-1.45c0.2-0.41,0.18-2.13-0.06-5.15c-0.99-12.36-1.99-24.72-2.98-37.08c-0.23-2.03-0.4-3.22-0.53-3.56
			c-0.12-0.35-0.53-0.46-1.22-0.33c-1.09,0.21-1.64,0.31-2.73,0.51c-0.25,0.05-0.57,0.1-0.94,0.17c-0.69,0.12-1.06-0.1-1.1-0.67
			c-0.04-0.5,0.47-0.88,1.52-1.14c4.1-1.01,7.58-2.98,10.33-5.91c0.34-0.36,0.52-0.55,0.86-0.91c0.6,1.11,1.05,3.29,1.34,6.54
			c-0.01-0.16,0.02,0.24,0.11,1.22c0.09,0.98,0.23,2.56,0.43,4.75c1,11.09,1.99,22.18,2.99,33.26c0.29,3.25,0.51,5.15,0.66,5.7
			c0.15,0.55,0.55,0.82,1.14,0.87c1,0.08,2.49-0.06,4.41-0.5C586.37,947.86,586.87,948.08,586.93,948.73z M572.68,874.32
			c0.33,3.66-0.88,5.8-3.63,6.36c-1.16,0.24-2.18-0.08-3.06-0.95c-0.87-0.86-1.37-2.04-1.49-3.5c-0.3-3.83,0.9-6,3.62-6.56
			C570.84,869.12,572.36,870.65,572.68,874.32z"/>
		<path d="M635.69,933.89c0.09,0.6-0.35,1.08-1.33,1.44c-0.47,0.18-0.71,0.26-1.18,0.44c-1.18,0.43-2.78,1.02-4.81,1.74
			c-6.42,2.28-10.24,3.48-11.43,3.86c-0.28,0.09-0.41,0.13-0.69,0.22c-0.86,0.27-1.32,0.13-1.39-0.44c-0.05-0.4,0.1-0.7,0.45-0.89
			c0.35-0.19,1.64-0.66,3.76-1.46c1.22-0.47,1.93-0.95,2.07-1.38c0.15-0.43,0.06-1.76-0.25-4.01c-1.28-9.24-1.92-13.86-3.2-23.09
			c-1.21-8.74-2.18-13.86-2.91-15.38c-1.56-3.26-3.9-4.36-7.07-3.37c-3.1,0.97-5.49,3.52-7.19,7.68c-0.5,1.23-0.64,2.77-0.42,4.63
			c1.49,12.58,2.99,25.16,4.48,37.74c0.11,0.97,0.88,1.29,2.29,0.96c1.21-0.3,1.82-0.46,3.03-0.77c0.67-0.2,1.04-0.02,1.11,0.54
			c0.07,0.56-0.29,0.97-1.08,1.2c-0.63,0.19-0.95,0.28-1.58,0.47c-1.45,0.43-3.76,1.11-6.93,1.99c-0.73,0.2-2.3,0.64-4.71,1.27
			c-2.41,0.64-3.82,0.99-4.22,1.09c-0.24,0.06-0.36,0.09-0.6,0.15c-0.99,0.25-1.51,0.12-1.57-0.38c-0.05-0.5,0.56-1.05,1.69-1.4
			c0.8-0.25,1.68-0.43,2.48-0.63c0.99-0.26,1.55-0.7,1.69-1.31c0.04-0.76,0.06-1.14,0.1-1.9c-1.15-10.57-1.73-15.86-2.88-26.43
			c-1.01-9.21-1.62-14.29-1.85-15.23c-0.23-0.94-1.07-1.22-2.51-0.85c-0.44,0.11-1.19,0.3-2.26,0.57c-0.19,0.05-0.28,0.07-0.47,0.12
			c-1.25,0.31-1.91,0.16-1.97-0.44c-0.08-0.78,0.57-1.3,1.85-1.65c1.84-0.5,3.85-1.51,5.94-2.91c2.09-1.39,3.51-2.75,4.25-4.04
			c0.48-0.8,0.88-1.25,1.19-1.34c0.43-0.12,0.74,0.58,0.92,2.12c0.28,2.33,0.41,3.49,0.69,5.82c2.61-6.35,6.4-10.28,11.46-11.92
			c4.44-1.44,7.94-0.43,10.54,3.12c1.47,2.01,2.71,6.37,3.7,13.1c1.62,10.96,2.44,16.44,4.06,27.4c0.38,2.57,0.69,3.93,0.92,4.1
			c0.46,0.34,1.45,0.24,2.95-0.31c0.2-0.07,0.55-0.2,1.08-0.4c0.27-0.1,0.41-0.15,0.69-0.26
			C635.24,933.23,635.61,933.37,635.69,933.89z"/>
		<path d="M666.36,877.13c0.73,3.61-0.29,6.1-3.07,7.44c-2.72,1.31-4.4,0.28-5.04-3.03c-0.17-0.87-0.11-2.31,0.17-4.33
			c0.08-0.63,0.06-1.23-0.05-1.78c-0.31-1.57-1.19-2.58-2.63-3.02c-1.44-0.44-3.11-0.24-4.99,0.61c-3.65,1.64-6.12,4.91-7.43,9.9
			c-1.31,4.98-1.36,11.21-0.09,18.68c1.43,8.42,3.62,14.48,6.6,18.12c2.98,3.64,6.51,4.58,10.52,2.78c2.71-1.22,4.94-3.37,6.66-6.42
			c0.78-1.4,1.67-3.8,2.67-7.21c0.24-0.55,0.49-0.88,0.74-1.01c0.63-0.31,1.02-0.15,1.14,0.48c0.21,1.02-0.53,3.5-2.2,7.4
			c-2.16,5.06-5.53,8.68-10.07,10.7c-5.71,2.54-10.9,2.02-15.46-1.5c-4.55-3.51-7.4-9.17-8.62-16.83
			c-1.31-8.22-0.47-15.75,2.4-22.64c2.87-6.89,7.05-11.51,12.65-14.02c3.59-1.61,6.98-1.87,10.23-0.76
			C663.74,871.79,665.71,873.92,666.36,877.13z"/>
		<path d="M711.36,882.93c0.2,0.76,0.06,2.42-0.41,4.97c-0.47,2.55-1.06,4.74-1.76,6.58c-1.86,5.02-5.1,8.9-9.68,11.52
			c-5.73,3.28-11.13,3.37-16.07,0.32c-4.94-3.04-8.16-8.39-9.73-15.89c-1.64-7.82-1.22-15.23,1.14-22.29
			c2.36-7.05,6.06-11.96,11.2-14.88c4.24-2.41,8.16-2.92,11.81-1.47c3.66,1.44,6.23,4.54,7.69,9.39c-1.84,1.59-4.37,3.32-7.61,5.17
			c-2.55,1.52-3.83,2.27-6.39,3.74c-0.43,0.24-9.34,3.39-10.93,6.46c-0.58,1.11,0.64,5.25,1.16,7.57
			c1.73,7.82,4.26,13.21,7.64,16.09c3.38,2.88,7.32,3.07,11.75,0.49c2.53-1.47,4.38-3.37,5.55-5.66c1.17-2.29,2.14-5.92,2.89-10.9
			c0.09-0.76,0.36-1.28,0.79-1.55C710.9,882.28,711.22,882.4,711.36,882.93z M697.47,864.38c-2.51-9.07-6.19-12.13-11.1-9.34
			c-4.85,2.76-6.83,9.03-5.98,19.01C687.25,870.37,690.67,868.43,697.47,864.38z"/>
		<path d="M772.61,826.78c0.08,0.22,0.22,0.84,0.44,1.88c0.55,2.63,2.16,8.9,4.81,18.83c0.15,0.55,0.22,0.82,0.37,1.37
			c-6.33,4.96-13.51,10.66-21.59,16.92c-4.35,3.37-8.41,6.52-12.19,9.5c-3.78,2.98-5.43,4.24-4.93,3.89
			c-1.68,1.19-2.62,1.4-2.84,0.65c-0.17-0.6,0.91-3.6,3.17-9.04c4.12-9.92,7.93-20.09,10.42-30.56c2.69-11.58,2.38-23.78-1.4-35.09
			c-2.47-7.37-5.53-11.99-9.1-13.94c-2.74-1.5-5.7-1.02-8.93,1.46c-3.17,2.43-5.27,5.61-6.35,9.56c-0.84,3.08-0.99,5.63-0.39,7.64
			c0.38,1.27,1.35,1.37,2.91,0.33c4.03-2.71,6.73-1.98,8.07,2.31c1.27,4.07,0.24,7.38-3.11,9.86c-2.14,1.58-4.11,1.97-5.89,1.17
			c-1.78-0.8-3.11-2.71-3.98-5.7c-1.62-5.53-1.44-11.03,0.48-16.52c1.91-5.48,5.21-9.97,9.91-13.63c4.7-3.65,9.22-4.82,13.64-3.44
			c5.14,1.6,9.03,5.97,11.58,13.26c2.8,8.01,3.35,17.27,1.29,27.55c-2.81,14.02-8.91,26.93-15.08,39.82
			c3.98-3.12,9.01-6.99,15.04-11.78c5.01-3.98,8.12-6.69,9.37-7.97c1.25-1.27,2.29-2.72,3.02-4.29c0.62-1.33,0.47-4.39-0.4-9.07
			c-0.6-3.23-0.52-5.18,0.24-5.83C771.74,825.42,772.22,825.71,772.61,826.78z"/>
		<path d="M812.12,767.24c2.78,5.7,4.45,12.5,5.31,19.45c0.86,6.95,0.65,13.48-0.58,19.49c-1.32,6.46-4.21,12-8.66,16.39
			c-6.1,6.01-12.62,7.21-19.29,3.61c-7.7-4.15-13.65-14.89-16.21-22.55c-3.97-11.86-6.02-25.33-3.66-38.09
			c1.36-7.38,4.2-13.15,8.59-17.47c5.18-5.1,10.54-6.2,16.21-3.35C802.95,749.32,808.05,758.89,812.12,767.24z M801.64,772.92
			c-4.14-10.15-8.81-17.73-13.35-22.63c-3.46-3.73-7.12-3.95-10.17-0.67c-9.96,10.72-1.19,33.54,3.53,45.12
			c2.58,6.34,13.66,38.02,25.99,25.9c3.63-3.57,4.76-9.74,3.36-18.33C809.35,792.09,805.47,782.3,801.64,772.92z"/>
		<path d="M861.85,730.8c0.1,0.19,0.32,0.76,0.66,1.72c0.85,2.42,3.2,8.11,7,17.09c0.21,0.5,0.32,0.75,0.53,1.24
			c-6.53,7.94-13.05,15.88-19.65,23.76c-3.96,4.73-7.65,9.15-11.08,13.3c-3.43,4.15-4.93,5.92-4.48,5.42
			c-1.54,1.71-2.46,2.22-2.76,1.54c-0.24-0.54,0.49-3.85,2.12-9.94c2.94-11.01,5.57-22.21,6.86-33.55
			c1.32-11.66-0.13-23.76-5.48-34.28c-3.31-6.5-6.93-10.08-10.73-10.86c-2.91-0.6-5.83,0.84-8.77,4.32
			c-2.89,3.42-4.62,7.24-5.24,11.49c-0.48,3.31-0.34,5.88,0.5,7.68c0.53,1.13,1.51,0.93,2.94-0.6c3.71-3.97,6.5-4.11,8.34-0.3
			c1.74,3.61,1.1,7.23-1.97,10.75c-1.96,2.25-3.88,3.26-5.75,3.03c-1.87-0.22-3.42-1.69-4.65-4.36c-2.27-4.95-2.72-10.44-1.45-16.48
			c1.28-6.03,4.04-11.52,8.32-16.65c4.28-5.13,8.67-7.75,13.25-7.82c5.33-0.09,9.73,2.97,13.13,9.37
			c3.73,7.03,5.39,16.07,4.49,26.87c-1.25,15.03-5.59,29.9-10.46,44.26c3.62-4.35,8.19-9.8,13.67-16.49
			c4.55-5.55,7.35-9.25,8.46-10.92c1.11-1.67,1.98-3.43,2.53-5.23c0.46-1.52-0.04-4.5-1.46-8.85c-0.98-3.01-1.13-4.96-0.44-5.86
			C860.82,729.73,861.34,729.86,861.85,730.8z"/>
		<path d="M907.45,695.61c0.33,0.52-0.06,1.65-1.18,3.39c-0.37,0.57-0.55,0.85-0.92,1.42c-1.16,1.79-1.75,2.69-2.92,4.46
			c-1.95,2.96-3.94,5.94-5.96,8.93c-3.58,5.29-5.89,8.58-6.89,10.01c-1,1.43-1.79,2.55-2.37,3.36c-1.27,1.79-2.06,2.4-2.37,1.85
			c-0.32-0.55-0.11-1.34,0.64-2.38c1.16-1.64,2.38-3.43,3.66-5.37c1.58-2.39,2.19-4.13,1.8-5.19c-0.39-1.06-1.45-3.03-3.17-5.92
			c-8.43-14.12-16.86-28.24-25.28-42.36c-1.15-1.92-1.88-2.99-2.19-3.21c-0.31-0.22-0.76,0.09-1.34,0.93
			c-0.24,0.35-1.73,2.79-4.49,7.24c-0.55,0.89-0.93,1.47-1.12,1.74c-0.59,0.83-1.01,1.02-1.25,0.59c-0.28-0.49-0.15-1.17,0.4-2.04
			c2.09-3.49,3.87-7.61,5.31-12.33c1.44-4.72,2.24-9.06,2.43-12.98c0.19-1.3,0.37-2.09,0.55-2.37c0.37-0.56,0.74-0.54,1.11,0.05
			c0.42,0.67,0.63,1.01,1.04,1.69c0.29,0.47,0.62,1.01,0.99,1.6c10.95,17.69,21.89,35.39,32.84,53.08c1.32,2.13,2.18,3.24,2.58,3.32
			c0.4,0.08,1.16-0.66,2.28-2.24c0.71-1.08,1.06-1.62,1.77-2.7c0.52-0.8,0.78-1.2,1.31-2.01c0.46-0.71,0.69-1.06,1.15-1.78
			C906.53,695.29,907.07,695.02,907.45,695.61z"/>
	</g>
</g>
<path class="st3" d="M525.01,434.78l162.98,29.47c19.65,3.55,36.08,14.55,46.9,29.55l91.83,119.61
	c-33.29,80.09-105.42,164.71-191.26,199.8l-23.57-35.09c-6.49-15.68-4.77-22.78-17.37-34.11l-124.97-32.36l0.04-0.22l-169.54-50.35
	c-7.41-2.2-13.6-7.33-17.15-14.19l-7.08-13.7c-2.73-5.29,1.47-11.51,7.4-10.94l140.7,13.49c14.47,1.39,17.38,3.01,30.98-2.15
	l15.99-5.22c3.57-1.36,8.22-10.23,5.16-12.52l-2.31-2.42c-4.23-4.44-9.04-8.3-14.37-11.33c-12.63-7.16-22.98-8.06-40.45-11.7
	l-177.34-38.48c-6.77-1.47-33.93-19.11-5.23-26.33L275,513.66l51.33-19.1c13.38-2.27,29.12-0.5,41.53-6l35-9.87
	c15.9-5.26,17.99,0.73,32.73-11.12c1.2-0.96,2.64-1.58,4.17-1.77l23.76-2.84c13.29-3.46,23.84-9.21,33.58-13.2l4.61-5.39
	c4.23-4.95,10.19-8.11,16.66-8.85C520.39,435.3,518.89,435.47,525.01,434.78"/>
<g>
	<circle class="st6" cx="563.56" cy="511.02" r="44"/>
	<path d="M563.56,470.53c22.37,0,40.5,18.13,40.5,40.5s-18.13,40.5-40.5,40.5s-40.5-18.13-40.5-40.5S541.19,470.53,563.56,470.53
		 M563.56,463.53c-26.19,0-47.5,21.31-47.5,47.5s21.31,47.5,47.5,47.5s47.5-21.31,47.5-47.5S589.75,463.53,563.56,463.53
		L563.56,463.53z"/>
</g>
<path class="st8" d="M553,500.99"/>
<path class="st7" d="M542.15,488.29c2.07,19.49,19.67,30.75,48.26,45.29"/>
<path class="st7" d="M585.53,488.29c-2.31,14.4-8.84,18.99-17.74,25.58c-9.38,6.95-18.3,9.41-34,14.65"/>
<path class="st9" d="M265,588.44l-7.69-1.59c-3.08-0.64-5.06-3.65-4.43-6.73l3.76-18.22c0.64-3.08,3.65-5.06,6.73-4.43l7.69,1.59
	c3.08,0.64,5.06,3.65,4.43,6.73l-3.76,18.22C271.09,587.09,268.08,589.07,265,588.44z"/>
<path class="st9" d="M285.58,595.82l-13.8-2.85c-1.93-0.4-3.17-2.28-2.77-4.21l5.13-24.83c0.4-1.93,2.28-3.17,4.21-2.77l13.8,2.85
	c1.93,0.4,3.17,2.28,2.77,4.21l-5.13,24.83C289.39,594.98,287.51,596.22,285.58,595.82z"/>
<path class="st10" d="M405.4,620.63c-2.51,6.82,12.8,11.64,16.5,28.87c2.49,11.61-2.7,17.64,2.06,22.68
	c4.85,5.13,15.74,4.74,22.68,0c7.6-5.18,8.59-14.25,9.28-20.62c0.47-4.3,2.09-19.14-8.25-28.87c-5.52-5.2-11.83-6.48-15.47-7.22
	C422.64,613.53,407.73,614.31,405.4,620.63z"/>
<path class="st3" d="M752.65,543.99c-15.42,12.64-31.92,21.32-47.76,25.9c0.22-3.96,0.2-7.97-0.07-11.99
	c-0.08-1.19-0.18-2.38-0.31-3.57c0-0.03-0.01-0.07-0.01-0.1c-1-9.54-3.41-19.1-7.27-28.26c-2.47-5.88-5.53-11.58-9.19-17.02
	c-12.54-18.57-29.86-30.61-48.09-35.3c8.53-15.41,20.81-30.34,36.23-42.99c14.71-12.06,30.41-20.51,45.57-25.24l2.11,10.85
	l10.62-13.96c20.68-3.66,39.47,0.06,52.17,11.48c2.7,2.44,5.13,5.21,7.25,8.35C815.02,453.42,796.55,507.98,752.65,543.99z"/>
<path class="st4" d="M752.12,529.28c-14.87,13.3-31.23,22.93-47.3,28.63c-0.03,0.01-0.06,0.02-0.09,0.03
	c-0.05-1.2-0.12-2.4-0.21-3.6c0-0.03-0.01-0.07-0.01-0.1c-0.78-9.51-3.21-19.09-7.27-28.26c-3.82-8.67-9.13-16.97-15.88-24.53
	c-14.84-16.59-34.07-26.57-53.54-29.49c7.44-15.37,18.84-30.6,33.73-43.92c18.31-16.38,38.9-27.19,58.4-31.95l1.81,9.32l2.11,10.85
	l10.62-13.96l6.82-8.97c17.11-0.12,32.14,5.29,42.29,16.64c1.09,1.22,2.11,2.49,3.06,3.81C807.33,442.57,792.67,493,752.12,529.28z"
	/>
<path class="st5" d="M732.26,524.46c-8.72,7.8-18.74,12.98-28.89,15.51c-2.12-13.41-8.93-27.76-20.09-40.24
	c-11.17-12.48-24.67-20.84-37.76-24.43c3.64-9.81,9.9-19.19,18.62-26.99c24.83-22.22,60.21-23.18,79.03-2.15
	S757.09,502.24,732.26,524.46z"/>
<ellipse transform="matrix(0.1488 -0.9889 0.9889 0.1488 -285.3257 683.7389)" class="st11" cx="254.51" cy="507.61" rx="24.58" ry="42.63"/>
</svg>
